<?xml version="1.0" encoding="UTF-8" standalone="no"?>
<!-- Created with Inkscape (https://www.inkscape.org/) -->

<svg
   width="1024"
   height="1024"
   viewBox="0 0 1024 1024"
   version="1.1"
   id="svg5"
   inkscape:version="1.1.1 (3bf5ae0d25, 2021-09-20, custom)"
   sodipodi:docname="logo.svg"
   inkscape:export-xdpi="9.6000004"
   inkscape:export-ydpi="9.6000004"
   xmlns:inkscape="https://www.inkscape.org/namespaces/inkscape"
   xmlns:sodipodi="https://sodipodi.sourceforge.net/DTD/sodipodi-0.dtd"
   xmlns="http://www.w3.org/2000/svg"
   xmlns:svg="http://www.w3.org/2000/svg"
   xmlns:rdf="https://www.w3.org/1999/02/22-rdf-syntax-ns#"
   xmlns:cc="https://creativecommons.org/ns#">
  <sodipodi:namedview
     id="namedview7"
     pagecolor="#505050"
     bordercolor="#ffffff"
     borderopacity="1"
     inkscape:pageshadow="0"
     inkscape:pageopacity="0"
     inkscape:pagecheckerboard="1"
     inkscape:document-units="px"
     showgrid="false"
     units="px"
     inkscape:snap-bbox="true"
     inkscape:snap-bbox-edge-midpoints="true"
     inkscape:snap-page="true"
     inkscape:zoom="0.27690412"
     inkscape:cx="386.41534"
     inkscape:cy="601.29116"
     inkscape:window-width="1256"
     inkscape:window-height="655"
     inkscape:window-x="309"
     inkscape:window-y="250"
     inkscape:window-maximized="0"
     inkscape:current-layer="layer1" />
  <defs
     id="defs2">
    <rect
       x="277.1584"
       y="289.98787"
       width="469.59626"
       height="386.36877"
       id="rect76847" />
    <rect
       x="331.1596"
       y="407.61378"
       width="446.31108"
       height="408.34885"
       id="rect2795" />
  </defs>
  <g
     inkscape:label="Layer 1"
     inkscape:groupmode="layer"
     id="layer1">
    <rect
       style="fill:#6610f2;stroke-width:3.78;stroke-linejoin:bevel;paint-order:stroke markers fill;fill-opacity:1"
       id="rect89678"
       width="1024"
       height="1024"
       x="0"
       y="0" />
    <g
       id="g851"
       style="fill:#05ece6;stroke-width:3.78;stroke-linejoin:bevel;paint-order:stroke markers fill"
       transform="matrix(1.4663592,0,0,1.4663592,310.14266,91.61157)">
      <path
         d="M -132.26046,508.76954 V 64.607591 H 407.57818 V 508.76954 Z"
         style="fill:#8686bf;fill-rule:evenodd;stroke:none;stroke-linejoin:round"
         id="path1397" />
      <path
         d="M -132.26046,508.76954 V 64.607591 l 35.077722,0.06885 V 451.04521 Z"
         style="fill:#495057;fill-opacity:1;fill-rule:evenodd;stroke:none;stroke-linejoin:round"
         id="path1399" />
      <path
         d="M -132.26046,508.76954 H 407.57818 L 372.41352,451.04521 H -97.182738 Z"
         style="fill:#343a40;fill-opacity:1;fill-rule:evenodd;stroke:none;stroke-linejoin:round"
         id="path1401" />
      <path
         d="M 407.57818,508.76954 V 64.607591 l -35.16466,0.06885 V 451.04521 Z"
         style="fill:#adb5bd;fill-opacity:1;fill-rule:evenodd;stroke:none;stroke-linejoin:round"
         id="path1403" />
      <path
         d="m -132.26046,64.607591 h 539.83864 l -35.16466,0.06885 H -97.182738 Z"
         style="fill:#d7d7ff;fill-rule:evenodd;stroke:none;stroke-linejoin:round"
         id="path1405" />
      <path
         d="M -97.182738,451.04521 V 64.676445 H 372.41352 V 451.04521 Z"
         style="fill:#dee2e6;fill-opacity:1;fill-rule:evenodd;stroke:none;stroke-linejoin:round"
         id="path1407" />
    </g>
    <text
       xml:space="preserve"
       id="text2793"
       style="font-style:normal;font-weight:normal;font-size:192px;line-height:1.25;font-family:sans-serif;letter-spacing:0px;word-spacing:0px;white-space:pre;shape-inside:url(#rect2795);fill:#000000;fill-opacity:1;stroke:none"
       transform="translate(-30.716022,-139.60599)" />
    <g
       aria-label="Any"
       id="text76845"
       style="font-size:192px;line-height:1.25;letter-spacing:0px;word-spacing:0px;white-space:pre;shape-inside:url(#rect76847)"
       transform="matrix(1.7582931,0,0,1.7582931,-388.16875,-250.53547)">
      <path
         d="m 446.96404,464.68432 -16.512,-42.432 h -54.336 l -16.32,42.432 h -17.472 l 53.568,-137.664 h 15.552 l 53.376,137.664 z m -37.056,-99.264 q -0.576,-1.536 -1.92,-5.568 -1.344,-4.032 -2.688,-8.256 -1.152,-4.416 -1.92,-6.72 -1.344,5.952 -3.072,11.712 -1.728,5.568 -2.88,8.832 l -15.552,41.472 h 43.392 z"
         style="font-family:'Noto Sans';-inkscape-font-specification:'Noto Sans';text-align:center;text-anchor:middle"
         id="path89631" />
      <path
         d="m 530.86802,359.85232 q 18.432,0 27.84,9.024 9.408,8.832 9.408,28.8 v 67.008 h -16.704 v -65.856 q 0,-24.768 -23.04,-24.768 -17.088,0 -23.616,9.6 -6.528,9.6 -6.528,27.648 v 53.376 h -16.896 v -102.912 h 13.632 l 2.496,14.016 h 0.96 q 4.992,-8.064 13.824,-11.904 8.832,-4.032 18.624,-4.032 z"
         style="font-family:'Noto Sans';-inkscape-font-specification:'Noto Sans';text-align:center;text-anchor:middle"
         id="path89633" />
      <path
         d="m 583.86003,361.77232 h 18.048 l 22.272,58.56 q 2.88,7.68 5.184,14.784 2.304,6.912 3.456,13.248 h 0.768 q 1.152,-4.8 3.648,-12.48 2.496,-7.872 5.184,-15.744 l 20.928,-58.368 h 18.24 l -44.352,117.12 q -5.376,14.592 -14.016,23.232 -8.448,8.64 -23.424,8.64 -4.608,0 -8.064,-0.576 -3.456,-0.384 -5.952,-0.96 v -13.44 q 2.112,0.384 4.992,0.768 3.072,0.384 6.336,0.384 8.832,0 14.208,-4.992 5.568,-4.992 8.64,-13.248 l 5.376,-13.632 z"
         style="font-family:'Noto Sans';-inkscape-font-specification:'Noto Sans';text-align:center;text-anchor:middle"
         id="path89635" />
    </g>
  </g>
  <metadata
     id="metadata1269">
    <rdf:RDF>
      <cc:Work
         rdf:about="">
        <cc:license
           rdf:resource="https://creativecommons.org/licenses/by-nc-sa/4.0/" />
      </cc:Work>
      <cc:License
         rdf:about="https://creativecommons.org/licenses/by-nc-sa/4.0/">
        <cc:permits
           rdf:resource="https://creativecommons.org/ns#Reproduction" />
        <cc:permits
           rdf:resource="https://creativecommons.org/ns#Distribution" />
        <cc:requires
           rdf:resource="https://creativecommons.org/ns#Notice" />
        <cc:requires
           rdf:resource="https://creativecommons.org/ns#Attribution" />
        <cc:prohibits
           rdf:resource="https://creativecommons.org/ns#CommercialUse" />
        <cc:permits
           rdf:resource="https://creativecommons.org/ns#DerivativeWorks" />
        <cc:requires
           rdf:resource="https://creativecommons.org/ns#ShareAlike" />
      </cc:License>
    </rdf:RDF>
  </metadata>
</svg>
